<?xml version="1.0" standalone="no"?>
<!DOCTYPE svg PUBLIC "-//W3C//DTD SVG 20010904//EN"
 "http://www.w3.org/TR/2001/REC-SVG-20010904/DTD/svg10.dtd">
<svg version="1.0" xmlns="http://www.w3.org/2000/svg"
 width="512.000000pt" height="512.000000pt" viewBox="0 0 512.000000 512.000000"
 preserveAspectRatio="xMidYMid meet">
<metadata>
Created by potrace 1.14, written by Peter Selinger 2001-2017
</metadata>
<g transform="translate(0.000000,512.000000) scale(0.100000,-0.100000)"
fill="#000000" stroke="none">
<path d="M3465 3658 c-233 -19 -405 -149 -449 -337 -13 -56 -14 -168 -2 -224
21 -94 93 -215 195 -327 l60 -65 -67 -42 c-160 -99 -310 -225 -373 -313 -111
-155 -123 -381 -30 -543 129 -226 421 -332 806 -294 180 18 398 121 520 245
l32 32 151 -152 151 -152 21 27 c22 28 26 33 73 84 l28 30 -61 64 c-34 35
-103 105 -153 156 l-90 92 54 108 c31 59 61 126 68 148 28 89 61 211 61 226 0
12 -23 23 -82 40 -85 24 -92 25 -94 12 0 -5 -4 -19 -7 -33 -4 -14 -9 -36 -11
-50 -6 -40 -52 -169 -86 -245 l-32 -70 -145 150 c-80 83 -210 216 -289 297
-79 81 -144 149 -144 153 0 3 53 40 118 82 133 88 258 205 295 279 87 172 62
368 -63 493 -103 103 -256 146 -455 129z m245 -195 c99 -49 142 -125 136 -239
-7 -136 -93 -232 -341 -384 l-63 -39 -64 71 c-133 148 -180 245 -173 361 7
108 72 200 168 235 29 11 59 22 67 25 8 3 58 4 110 4 86 -2 102 -5 160 -34z
m-181 -1026 c58 -60 176 -180 261 -267 85 -87 175 -178 199 -203 l43 -45 -48
-47 c-84 -81 -208 -144 -344 -177 -61 -14 -246 -18 -306 -6 -27 5 -60 11 -74
14 -50 9 -167 74 -209 116 -24 24 -56 69 -71 101 -49 102 -36 254 30 352 57
83 163 176 278 242 26 15 58 35 71 45 29 22 18 30 170 -125z"/>
<path d="M646 3643 c-3 -4 -6 -483 -6 -1065 l0 -1059 593 4 c325 2 606 7 622
11 17 4 59 14 95 22 147 33 233 78 321 164 105 104 150 225 143 388 -6 159
-47 263 -141 357 -57 57 -183 129 -248 141 -34 6 -49 24 -22 24 19 0 125 70
161 106 79 79 133 207 139 329 12 239 -98 413 -322 508 -153 66 -250 75 -832
75 -273 1 -499 -2 -503 -5z m1079 -198 c229 -43 344 -158 351 -354 4 -102 -15
-166 -67 -234 -29 -38 -89 -90 -108 -93 -3 0 -27 -11 -53 -23 -26 -12 -66 -24
-90 -27 -24 -3 -61 -10 -82 -14 -22 -5 -213 -8 -425 -7 l-386 2 0 380 0 380
24 5 c14 3 187 4 385 4 292 -2 378 -5 451 -19z m55 -949 c140 -22 236 -59 306
-120 23 -19 54 -61 70 -93 25 -53 28 -68 28 -168 0 -60 -2 -120 -6 -132 -42
-138 -160 -226 -350 -259 -76 -14 -172 -17 -528 -18 l-435 -2 1 396 c1 217 2
397 3 400 2 8 858 4 911 -4z"/>
</g>
</svg>
